<svg id="Capa_1" data-name="Capa 1" xmlns="http://www.w3.org/2000/svg" viewBox="0 0 78.03 69.93"><title>heart</title><path d="M20.76,0A20.29,20.29,0,0,0,6,6.31,22.16,22.16,0,0,0,6,36.72L36.83,69a3,3,0,0,0,4.24.1l.1-.1L72,36.75A22.13,22.13,0,0,0,72,6.34a20.28,20.28,0,0,0-29.44,0L39,10,35.48,6.31A20.25,20.25,0,0,0,20.76,0Zm0,5.88a14.37,14.37,0,0,1,10.41,4.59l5.69,6a3,3,0,0,0,4.24.1l.1-.1,5.66-5.94a14.07,14.07,0,0,1,20.78,0,16.15,16.15,0,0,1,0,22.12Q53.33,47.61,39,62.56l-28.62-30a16.15,16.15,0,0,1,0-22.12A14.29,14.29,0,0,1,20.76,5.88Z"/></svg>